#N canvas 291 33 1196 787 10;
#X msg -211 101 bang;
#X floatatom -268 375 10 0 0 0 - - -;
#X floatatom -189 375 10 0 0 0 - - -;
#X floatatom -110 375 10 0 0 0 - - -;
#X floatatom -171 299 0 0 0 3 actual_azimuth - -;
#X floatatom -159 265 0 0 0 3 actual_elevation - -;
#X floatatom -149 244 7 0 0 1 actual_spreading - -;
#X text -210 79 to output updated values;
#X obj -268 217 vbap 90 0 30;
#X msg -269 -19 define_loudspeakers 2 0 90 180;
#X obj 86 40 tor;
#X msg 86 111 azimuth: \$1 elevation: \$2 distance: \$3;
#X obj 87 156 print;
#X obj 86 74 pack f f f;
#X msg 86 12 tor \$1 \$2 \$3;
#X floatatom 85 -75 5 0 0 0 - - -;
#X obj 86 -93 hsl 128 10 -100 100 0 0 empty empty empty -2 -8 0 10
-4034 -1 -1 0 1;
#X floatatom 242 -74 5 0 0 0 - - -;
#X floatatom 451 -70 5 0 0 0 - - -;
#X obj 245 -92 hsl 128 10 -100 100 0 0 empty empty empty -2 -8 0 10
-4034 -1 -1 0 1;
#X obj 454 -89 hsl 128 10 -100 100 0 0 empty empty empty -2 -8 0 10
-4034 -1 -1 0 1;
#X text 242 -122 y in [-100 \, 100];
#X text 451 -119 z in [-100 \, 100];
#X obj 84 -33 pack f f f;
#X obj -268 326 route 0 1 2;
#X msg -268 -123 \; pd dsp 1;
#X msg -268 -73 \; pd dsp 0;
#X text 85 -123 x in [-100 \, 100];
#X obj -35 -69 metro 100;
#X obj -35 -91 tgl 15 0 empty empty empty 17 7 0 10 -262144 -1 -1 0
1;
#X text -268 411 volume speaker 1;
#X text -191 412 volume speaker 2;
#X text -111 409 volume speaker 3;
#X connect 0 0 8 0;
#X connect 8 0 24 0;
#X connect 8 1 4 0;
#X connect 8 2 5 0;
#X connect 8 3 6 0;
#X connect 9 0 8 0;
#X connect 10 0 13 0;
#X connect 10 0 8 1;
#X connect 10 1 13 1;
#X connect 10 1 8 2;
#X connect 10 2 13 2;
#X connect 10 2 8 3;
#X connect 11 0 12 0;
#X connect 13 0 11 0;
#X connect 14 0 10 0;
#X connect 15 0 23 0;
#X connect 16 0 15 0;
#X connect 17 0 23 1;
#X connect 18 0 23 2;
#X connect 19 0 17 0;
#X connect 20 0 18 0;
#X connect 23 0 14 0;
#X connect 24 0 1 0;
#X connect 24 1 2 0;
#X connect 24 2 3 0;
#X connect 28 0 23 0;
#X connect 28 0 8 0;
#X connect 29 0 28 0;
