#N canvas 123 38 872 690 10;
#X obj -389 -152 loadbang;
#X obj -381 428 dac~;
#X obj -52 38 soundfiler;
#X obj -382 349 *~;
#X obj -209 -67 openpanel;
#X obj -209 -40 t b s;
#X obj -209 -109 bng 32 250 50 0 empty empty empty 0 -6 0 8 -4034 -1
-1;
#X obj -289 315 vsl 8 64 0 100 0 1 empty empty empty 0 -8 0 8 -4034
-1 -1 5300 1;
#X obj -118 -69 table irL;
#X msg -207 11 set irL;
#X msg -138 11 set irR;
#X obj -350 349 *~;
#X obj -172 257 partconv~ irR 2048;
#X obj -118 -47 table irR;
#X obj -288 404 dbtorms;
#X obj -376 121 adc~ 1;
#X obj -298 256 partconv~ irL 2048;
#X obj -421 152 vu 8 80 empty empty -1 -8 0 10 -66577 -1 1 0;
#X obj -422 122 pvu~;
#X obj 92 38 soundfiler;
#X msg -52 11 read -resize \$1 irL;
#X msg 92 11 read -resize \$1 irR;
#X obj -163 318 pvu~;
#X obj -104 320 pvu~;
#X text -212 -136 (0) load impulse response;
#X text -383 91 (1) get input;
#X text -339 431 (4) send output;
#X msg -389 -120 \; pd dsp 1;
#X obj -376 163 *~;
#X obj -291 31 vsl 8 64 0 100 0 1 empty empty empty 0 -8 0 8 -4034
-1 -1 6100 1;
#X obj -335 164 *~;
#X obj -292 123 dbtorms;
#X text -46 255 (2) convolve input with store impulse response;
#X text -59 21 comment;
#X obj -104 354 vu 8 80 empty empty -1 -8 0 10 -66577 -1 1 0;
#X obj -162 353 vu 8 80 empty empty -1 -8 0 10 -66577 -1 1 0;
#X connect 0 0 27 0;
#X connect 0 0 6 0;
#X connect 3 0 1 0;
#X connect 3 0 22 0;
#X connect 4 0 5 0;
#X connect 5 0 9 0;
#X connect 5 0 10 0;
#X connect 5 1 20 0;
#X connect 5 1 21 0;
#X connect 6 0 4 0;
#X connect 7 0 14 0;
#X connect 9 0 16 0;
#X connect 10 0 12 0;
#X connect 11 0 1 1;
#X connect 11 0 23 0;
#X connect 12 0 11 0;
#X connect 14 0 3 1;
#X connect 14 0 11 1;
#X connect 15 0 18 0;
#X connect 15 0 28 0;
#X connect 15 0 30 0;
#X connect 16 0 3 0;
#X connect 18 0 17 0;
#X connect 20 0 2 0;
#X connect 21 0 19 0;
#X connect 22 0 35 0;
#X connect 23 0 34 0;
#X connect 28 0 16 0;
#X connect 29 0 31 0;
#X connect 30 0 12 0;
#X connect 31 0 28 1;
#X connect 31 0 30 1;
