#N canvas 4 23 1421 675 10;
#X declare -lib mrpeach;
#X obj -390 -72 loadbang;
#X obj -377 561 dac~;
#X obj -105 275 soundfiler;
#X obj -199 177 openpanel;
#X obj -178 230 t b s;
#X obj -199 135 bng 32 250 50 0 empty empty empty 0 -6 0 8 -4034 -1
-1;
#X obj -375 384 adc~ 1;
#X msg -390 -31 \; pd dsp 1;
#X obj -126 -17 dac~;
#X obj -285 -49 samplerate~;
#X obj -285 2 print;
#X obj -285 -73 bng 15 250 50 0 empty empty empty 17 7 0 10 -262144
-1 -1;
#X msg -285 -24 fs \$1;
#X obj -126 -71 bng 15 250 50 0 empty empty empty 17 7 0 10 -262144
-1 -1;
#X msg -105 248 read -resize \$1 ir;
#X obj -104 225 table ir;
#X obj -196 380 partconv~ ir 8192;
#X msg -199 280 set ir;
#X obj -126 -48 tabplay~ ir;
#X text -140 -92 * listen impulse response;
#X text -300 -94 * get Pd sampling rate;
#X obj -312 107 hsl 128 15 0 127 0 0 empty empty empty -2 -8 0 10 -204786
-1 -1 5700 1;
#X obj -299 174 / 127;
#X obj -358 251 -;
#X obj -359 188 t b f;
#X obj -375 460 drywet~;
#X obj -360 297 *~;
#X obj -277 376 *~;
#X obj -358 212 1.5;
#X obj -294 202 t b f;
#X obj -293 226 1.5;
#X obj -295 267 +;
#X obj 165 -80 import mrpeach;
#X obj 163 189 udpsend;
#X obj 449 403 packOSC;
#X obj 541 258 samplerate~;
#X msg 177 17 disconnect;
#X obj 366 35 bng 15 250 50 0 empty empty empty 17 7 0 10 -262144 -1
-1;
#X text 483 75 space;
#X text 553 97 sound speed;
#X text 532 140 j_max;
#X text 572 185 duration;
#X text 609 221 viscocity;
#X floatatom 488 140 5 0 0 0 - - -;
#X obj 505 181 float 15;
#X obj 468 101 float 340;
#X obj 520 222 float 1.7e-05;
#X msg 166 -22 connect localhost 9001;
#X obj 449 318 pack s f f f f f f;
#X text 652 290 F;
#X msg 450 359 send /espaces \$1 \$2 \$3 \$4 \$5 \$6 \$7;
#X msg 450 32 s3;
#X obj 164 222 print;
#X obj 140 404 unpackOSC;
#X obj 139 445 routeOSC /pd;
#X obj 33 487 print;
#X obj 589 440 print;
#X obj 139 365 udpreceive 9002;
#X obj 166 -49 loadbang;
#X obj 140 482 pack s;
#X obj 580 289 float 0.1;
#X text 623 257 sampling rate from Pd audio settings;
#X connect 0 0 7 0;
#X connect 3 0 17 0;
#X connect 3 0 4 0;
#X connect 4 0 17 0;
#X connect 4 1 14 0;
#X connect 4 1 55 0;
#X connect 5 0 3 0;
#X connect 6 0 26 0;
#X connect 6 0 25 0;
#X connect 9 0 12 0;
#X connect 11 0 9 0;
#X connect 12 0 10 0;
#X connect 13 0 18 0;
#X connect 14 0 2 0;
#X connect 16 0 27 0;
#X connect 17 0 16 0;
#X connect 18 0 8 0;
#X connect 18 0 8 1;
#X connect 21 0 22 0;
#X connect 21 0 25 2;
#X connect 22 0 24 0;
#X connect 22 0 29 0;
#X connect 23 0 26 1;
#X connect 24 0 28 0;
#X connect 24 1 23 1;
#X connect 25 0 1 0;
#X connect 25 0 1 1;
#X connect 26 0 16 0;
#X connect 27 0 25 1;
#X connect 28 0 23 0;
#X connect 29 0 30 0;
#X connect 30 0 31 0;
#X connect 31 0 27 1;
#X connect 33 0 52 0;
#X connect 34 0 33 0;
#X connect 35 0 48 5;
#X connect 36 0 33 0;
#X connect 37 0 35 0;
#X connect 37 0 43 0;
#X connect 37 0 44 0;
#X connect 37 0 45 0;
#X connect 37 0 46 0;
#X connect 37 0 51 0;
#X connect 37 0 60 0;
#X connect 43 0 48 2;
#X connect 44 0 48 3;
#X connect 45 0 48 1;
#X connect 46 0 48 4;
#X connect 47 0 33 0;
#X connect 48 0 50 0;
#X connect 50 0 34 0;
#X connect 50 0 56 0;
#X connect 51 0 48 0;
#X connect 53 0 54 0;
#X connect 54 0 59 0;
#X connect 57 0 53 0;
#X connect 58 0 47 0;
#X connect 59 0 4 0;
#X connect 60 0 48 6;
