#N canvas 33 23 528 755 10;
#X obj 109 265 r~ micro;
#X obj 11 508 *~;
#X obj 26 337 vsl 8 128 0 100 0 1 empty empty empty 0 -8 0 8 -260818
-1 -1 10160 1;
#X obj 25 476 dbtorms;
#X obj 32 238 soundfiler;
#X floatatom 52 397 5 0 0 0 - - -;
#X obj 265 121 bng 15 250 50 0 empty empty empty 17 7 0 10 -262144
-1 -1;
#X obj 52 69 list trim;
#X obj 12 590 compressor~;
#X floatatom 74 542 5 -100 500 0 - - -;
#X obj 75 566 / 100;
#X obj 52 97 route 97 122 101 114;
#X obj 13 41 t b l l;
#X obj 31 219 print;
#X obj 11 661 clip~ -0.95 0.95;
#X obj 11 696 outlet~;
#X obj 73 521 r compressor;
#X floatatom 264 173 5 0 0 0 - - -;
#X obj 50 121 bng 15 250 50 0 empty empty empty 17 7 0 10 -262144 -1
-1;
#X floatatom 49 173 5 0 0 0 - - -;
#X obj 106 123 bng 15 250 50 0 empty empty empty 17 7 0 10 -262144
-1 -1;
#X floatatom 105 175 5 0 0 0 - - -;
#X obj 179 121 bng 15 250 50 0 empty empty empty 17 7 0 10 -262144
-1 -1;
#X floatatom 178 173 5 0 0 0 - - -;
#X obj 56 146 r amp_e3;
#X obj 113 148 r amp_s2e1;
#X obj 185 149 r amp_h2e1;
#X obj 275 146 r amp_s3;
#X obj 13 18 inlet;
#X msg 32 198 read -resize ressources/mexico/\$1.wav irL_2;
#X obj 308 200 table irL_2;
#X obj 10 298 partconv~ irL_2 2048;
#X msg 13 263 set irL_2;
#X connect 0 0 31 0;
#X connect 1 0 8 0;
#X connect 2 0 3 0;
#X connect 2 0 5 0;
#X connect 3 0 1 1;
#X connect 6 0 17 0;
#X connect 7 0 11 0;
#X connect 8 0 14 0;
#X connect 9 0 10 0;
#X connect 10 0 8 1;
#X connect 11 0 18 0;
#X connect 11 1 20 0;
#X connect 11 2 22 0;
#X connect 11 3 6 0;
#X connect 12 0 32 0;
#X connect 12 1 29 0;
#X connect 12 2 7 0;
#X connect 14 0 15 0;
#X connect 16 0 9 0;
#X connect 17 0 2 0;
#X connect 18 0 19 0;
#X connect 19 0 2 0;
#X connect 20 0 21 0;
#X connect 21 0 2 0;
#X connect 22 0 23 0;
#X connect 23 0 2 0;
#X connect 24 0 19 0;
#X connect 25 0 21 0;
#X connect 26 0 23 0;
#X connect 27 0 17 0;
#X connect 28 0 12 0;
#X connect 29 0 4 0;
#X connect 29 0 13 0;
#X connect 31 0 1 0;
#X connect 32 0 31 0;
