#N canvas 553 23 694 755 10;
#X obj 29 661 dac~;
#X obj 28 553 *~;
#X obj 43 386 vsl 8 128 0 100 0 1 empty empty empty 0 -8 0 8 -260818
-1 -1 6858 1;
#X obj 367 36 table irL;
#X msg 26 308 set irL;
#X obj 64 554 *~;
#X obj 42 521 dbtorms;
#X obj 27 343 partconv~ irL 2048;
#X obj 343 395 vu 15 120 empty empty -1 -8 0 10 -66577 -1 1 0;
#X obj 305 544 pvu~;
#X obj 255 396 vu 15 120 empty empty -1 -8 0 10 -66577 -1 1 0;
#X obj 162 541 pvu~;
#X obj 49 283 soundfiler;
#X msg 278 83 \; pd dsp 1;
#X obj 278 60 loadbang;
#X floatatom 69 389 5 0 0 0 - - -;
#X obj 99 185 bng 15 250 50 0 empty empty empty 17 7 0 10 -262144 -1
-1;
#X obj 69 185 bng 15 250 50 0 empty empty empty 17 7 0 10 -262144 -1
-1;
#X obj 137 185 bng 15 250 50 0 empty empty empty 17 7 0 10 -262144
-1 -1;
#X obj 174 186 bng 15 250 50 0 empty empty empty 17 7 0 10 -262144
-1 -1;
#X obj 69 135 list trim;
#X obj 145 618 compressor~;
#X floatatom 206 559 5 -100 500 0 - - -;
#X obj 208 593 / 100;
#X obj 162 339 partconv~ irL 2048;
#X text 27 9 Receive message from keyboard;
#X obj 29 37 key;
#X obj 69 163 route 97 122 101 114;
#X obj 30 107 t b l l;
#X obj 415 357 print;
#X msg 49 243 read -resize ressources/berlin/\$1.wav irL;
#X obj 144 308 adc~ 1 2;
#X msg 73 67 97;
#X msg 109 68 122;
#X msg 146 68 101;
#X msg 189 69 114;
#X obj 189 39 loadbang;
#X msg 175 207 54;
#X msg 69 207 65.3;
#X msg 102 207 39.5;
#X msg 137 207 55.3;
#X text 511 14;
#X obj 31 617 clip~ -0.95 0.95;
#X connect 1 0 21 0;
#X connect 1 0 9 0;
#X connect 2 0 6 0;
#X connect 2 0 15 0;
#X connect 4 0 7 0;
#X connect 4 0 24 0;
#X connect 5 0 11 0;
#X connect 6 0 1 1;
#X connect 6 0 5 1;
#X connect 7 0 1 0;
#X connect 9 0 8 0;
#X connect 11 0 10 0;
#X connect 14 0 13 0;
#X connect 16 0 39 0;
#X connect 17 0 38 0;
#X connect 18 0 40 0;
#X connect 19 0 37 0;
#X connect 20 0 27 0;
#X connect 21 0 42 0;
#X connect 22 0 23 0;
#X connect 23 0 21 1;
#X connect 24 0 5 0;
#X connect 26 0 28 0;
#X connect 27 0 17 0;
#X connect 27 1 16 0;
#X connect 27 2 18 0;
#X connect 27 3 19 0;
#X connect 28 0 4 0;
#X connect 28 1 30 0;
#X connect 28 2 20 0;
#X connect 30 0 12 0;
#X connect 30 0 29 0;
#X connect 31 0 7 0;
#X connect 31 0 24 0;
#X connect 32 0 28 0;
#X connect 33 0 28 0;
#X connect 34 0 28 0;
#X connect 35 0 28 0;
#X connect 36 0 35 0;
#X connect 37 0 2 0;
#X connect 38 0 2 0;
#X connect 39 0 2 0;
#X connect 40 0 2 0;
#X connect 42 0 0 0;
#X connect 42 0 0 1;
