#N canvas 575 23 694 755 10;
#X msg 597 54 \; pd dsp 1;
#X obj 597 31 loadbang;
#X obj 20 53 s~ micro;
#X obj 20 28 adc~;
#X msg 67 156 97;
#X msg 103 157 122;
#X msg 140 157 101;
#X msg 183 158 114;
#X obj 183 130 loadbang;
#X obj 27 155 key;
#X obj 26 560 dac~;
#X obj 101 55 s compressor;
#X obj 36 606 vu 15 120 empty empty -1 -8 0 10 -66577 -1 1 0;
#X obj 36 740 pvu~;
#X obj 188 56 s clip;
#X msg 188 33 0.97;
#X obj 19 105 s amp_e3;
#X obj 98 106 s amp_s2e1;
#X obj 183 106 s amp_h2e1;
#X obj 260 106 s amp_s3;
#X obj 27 188 s key;
#X msg 260 80 80;
#X msg 182 80 80;
#X msg 98 80 80;
#X msg 19 81 80;
#X msg 101 30 20;
#X floatatom 297 80 5 0 0 0 - - -;
#X floatatom 218 80 5 0 0 0 - - -;
#X floatatom 135 81 5 0 0 0 - - -;
#X floatatom 49 81 5 0 0 0 - - -;
#X floatatom 138 31 5 0 0 0 - - -;
#X obj 324 599 vu 15 120 empty empty -1 -8 0 10 -66577 -1 1 0;
#X obj 325 734 pvu~;
#X obj 152 356 line;
#X msg 222 325 0 1000;
#X text 151 306 attack;
#X text 222 306 decay;
#X obj 46 505 s~ monitor_1;
#X obj 37 766 r~ monitor_1;
#X obj 326 761 r~ monitor_2;
#X obj 18 453 *~;
#X obj 32 421 dbtorms;
#X obj 34 384 hsl 128 8 0 127 0 0 empty empty empty -2 -8 0 10 -4032
-1 -1 7200 1;
#X floatatom 39 399 5 0 0 0 - - -;
#X obj 332 558 dac~;
#X obj 458 354 line;
#X text 456 302 attack;
#X text 528 304 decay;
#X obj 324 451 *~;
#X obj 338 419 dbtorms;
#X obj 340 382 hsl 128 8 0 127 0 0 empty empty empty -2 -8 0 10 -4032
-1 -1 2800 1;
#X floatatom 345 397 5 0 0 0 - - -;
#X obj 352 503 s~ monitor_2;
#X msg 459 322 0 1000;
#X obj 301 232 tgl 15 0 empty empty empty 17 7 0 10 -262144 -1 -1 8
8;
#X obj 302 256 select;
#X obj 300 180 r key;
#X obj 300 210 bng 15 250 50 0 empty empty empty 17 7 0 10 -262144
-1 -1;
#X obj 325 321 base_universum_2;
#X obj 19 323 base_universum_1;
#X obj 95 250 gate 2;
#X obj 127 222 r key;
#X msg 153 324 100 1000;
#X msg 528 322 100 1000;
#X connect 1 0 0 0;
#X connect 3 0 2 0;
#X connect 3 1 2 0;
#X connect 4 0 20 0;
#X connect 5 0 20 0;
#X connect 6 0 20 0;
#X connect 7 0 20 0;
#X connect 8 0 7 0;
#X connect 9 0 20 0;
#X connect 13 0 12 0;
#X connect 15 0 14 0;
#X connect 21 0 19 0;
#X connect 22 0 18 0;
#X connect 23 0 17 0;
#X connect 24 0 16 0;
#X connect 25 0 11 0;
#X connect 26 0 19 0;
#X connect 27 0 18 0;
#X connect 28 0 17 0;
#X connect 29 0 16 0;
#X connect 30 0 11 0;
#X connect 32 0 31 0;
#X connect 33 0 42 0;
#X connect 34 0 33 0;
#X connect 38 0 13 0;
#X connect 39 0 32 0;
#X connect 40 0 37 0;
#X connect 40 0 10 0;
#X connect 40 0 10 1;
#X connect 41 0 40 1;
#X connect 42 0 43 0;
#X connect 42 0 41 0;
#X connect 45 0 50 0;
#X connect 48 0 44 1;
#X connect 48 0 52 0;
#X connect 48 0 44 0;
#X connect 49 0 48 1;
#X connect 50 0 51 0;
#X connect 50 0 49 0;
#X connect 53 0 45 0;
#X connect 54 0 55 0;
#X connect 54 0 60 0;
#X connect 55 0 62 0;
#X connect 55 0 53 0;
#X connect 55 1 34 0;
#X connect 55 1 63 0;
#X connect 56 0 57 0;
#X connect 57 0 54 0;
#X connect 58 0 48 0;
#X connect 59 0 40 0;
#X connect 60 0 59 0;
#X connect 60 1 58 0;
#X connect 61 0 60 1;
#X connect 62 0 33 0;
#X connect 63 0 45 0;
