#N canvas 0 22 1276 703 10;
#X obj 29 420 *~;
#X obj 44 364 vsl 8 12 0 100 0 1 empty empty empty 0 -8 0 8 -260818
-1 -1 1100 1;
#X obj 44 390 dbtorms;
#X obj 179 463 vu 15 120 empty empty -1 -8 0 10 -66577 -1 1 0;
#X obj 178 435 pvu~;
#X obj 30 224 soundfiler;
#X obj 29 480 clip~ -1 1;
#X obj 29 452 compressor~;
#X floatatom 92 407 5 -100 500 0 - - -;
#X obj 92 429 / 100;
#X obj 18 26 adc~ 1;
#X obj 108 273 r~ micro;
#X obj 490 89 s e3;
#X obj 44 332 r e3;
#X obj 31 129 r bang;
#X obj 29 249 r bang;
#X obj 490 26 r bang;
#X obj 525 88 s s2e1;
#X obj 576 88 s h2e1;
#X obj 632 88 s s3;
#X obj 397 30 loadbang;
#X obj 397 54 s bang;
#X obj 371 29 bng 15 250 50 0 empty empty empty 17 7 0 10 -262144 -1
-1;
#X obj 18 58 s~ micro;
#X obj 107 226 table ir_e3;
#X msg 29 273 set ir_e3;
#X obj 29 308 partconv~ ir_e3 2048;
#X obj 350 596 *~;
#X obj 365 540 vsl 8 12 0 100 0 1 empty empty empty 0 -8 0 8 -260818
-1 -1 770 1;
#X obj 365 566 dbtorms;
#X obj 500 639 vu 15 120 empty empty -1 -8 0 10 -66577 -1 1 0;
#X obj 499 611 pvu~;
#X obj 351 400 soundfiler;
#X obj 350 656 clip~ -1 1;
#X obj 350 628 compressor~;
#X floatatom 413 583 5 -100 500 0 - - -;
#X obj 413 605 / 100;
#X obj 429 449 r~ micro;
#X obj 352 307 r bang;
#X obj 350 425 r bang;
#X obj 428 402 table ir_s2e1;
#X msg 350 449 set ir_s2e1;
#X obj 365 508 r s2e1;
#X obj 350 484 partconv~ ir_s2e1 2048;
#X obj 788 388 *~;
#X obj 803 332 vsl 8 12 0 100 0 1 empty empty empty 0 -8 0 8 -260818
-1 -1 770 1;
#X obj 803 358 dbtorms;
#X obj 938 431 vu 15 120 empty empty -1 -8 0 10 -66577 -1 1 0;
#X obj 937 403 pvu~;
#X obj 789 192 soundfiler;
#X obj 788 448 clip~ -1 1;
#X obj 788 420 compressor~;
#X floatatom 856 383 5 -100 500 0 - - -;
#X obj 851 397 / 100;
#X obj 867 241 r~ micro;
#X obj 790 112 r bang;
#X obj 788 217 r bang;
#X obj 1036 613 *~;
#X obj 1051 557 vsl 8 12 0 100 0 1 empty empty empty 0 -8 0 8 -260818
-1 -1 440 1;
#X obj 1051 583 dbtorms;
#X obj 1186 656 vu 15 120 empty empty -1 -8 0 10 -66577 -1 1 0;
#X obj 1185 628 pvu~;
#X obj 1037 417 soundfiler;
#X obj 1036 673 clip~ -1 1;
#X obj 1036 645 compressor~;
#X floatatom 1099 600 5 -100 500 0 - - -;
#X obj 1099 622 / 100;
#X obj 1115 466 r~ micro;
#X obj 1038 322 r bang;
#X obj 1036 442 r bang;
#X obj 866 194 table ir_h2e1;
#X obj 788 276 partconv~ ir_s2e1 2048;
#X obj 803 300 r h2e1;
#X obj 1114 419 table ir_s3;
#X msg 1036 466 set ir_s3;
#X obj 1036 501 partconv~ ir_s3 2048;
#X obj 1051 525 r s3;
#X msg 788 241 set ir_h2e1;
#X obj 136 23 catch~ out_e3;
#X obj 29 516 throw~ out_e3;
#X obj 158 45 catch~ out_s2e1;
#X obj 180 71 catch~ out_h2e1;
#X obj 204 94 catch~ out_s3;
#X obj 350 692 throw~ out_s2e1;
#X obj 788 484 throw~ out_h2e1;
#X obj 1036 709 throw~ out_s3;
#X text 221 131 <<< lines out motu;
#X msg 490 64 100;
#X msg 525 64 70;
#X msg 577 64 70;
#X msg 631 65 40;
#X obj 132 131 dac~ 1 2;
#X msg 30 158 read -resize /Users/JRLetelier/perso/espaces/dev/installation/ihp/ihp_sergio/ressources/berlin/e3.wav
ir_e3;
#X msg 351 335 read -resize /Users/JRLetelier/perso/espaces/dev/installation/ihp/ihp_sergio/ressources/berlin/s2e1.wav
ir_s2e1;
#X msg 789 141 read -resize /Users/JRLetelier/perso/espaces/dev/installation/ihp/ihp_sergio/ressources/paris/h2e1.wav
ir_h2e1;
#X msg 1037 351 read -resize /Users/JRLetelier/perso/espaces/dev/installation/ihp/ihp_sergio/ressources/berlin/s3.wav
ir_s3;
#X connect 0 0 7 0;
#X connect 0 0 4 0;
#X connect 1 0 2 0;
#X connect 2 0 0 1;
#X connect 4 0 3 0;
#X connect 6 0 79 0;
#X connect 7 0 6 0;
#X connect 8 0 9 0;
#X connect 9 0 7 1;
#X connect 10 0 23 0;
#X connect 11 0 26 0;
#X connect 13 0 1 0;
#X connect 14 0 92 0;
#X connect 15 0 25 0;
#X connect 16 0 87 0;
#X connect 16 0 88 0;
#X connect 16 0 89 0;
#X connect 16 0 90 0;
#X connect 20 0 21 0;
#X connect 22 0 21 0;
#X connect 25 0 26 0;
#X connect 26 0 0 0;
#X connect 27 0 34 0;
#X connect 27 0 31 0;
#X connect 28 0 29 0;
#X connect 29 0 27 1;
#X connect 31 0 30 0;
#X connect 33 0 83 0;
#X connect 34 0 33 0;
#X connect 35 0 36 0;
#X connect 36 0 34 1;
#X connect 37 0 43 0;
#X connect 38 0 93 0;
#X connect 39 0 41 0;
#X connect 41 0 43 0;
#X connect 42 0 28 0;
#X connect 43 0 27 0;
#X connect 44 0 51 0;
#X connect 44 0 48 0;
#X connect 45 0 46 0;
#X connect 46 0 44 1;
#X connect 48 0 47 0;
#X connect 50 0 84 0;
#X connect 51 0 50 0;
#X connect 52 0 53 0;
#X connect 53 0 51 1;
#X connect 54 0 71 0;
#X connect 55 0 94 0;
#X connect 56 0 77 0;
#X connect 57 0 64 0;
#X connect 57 0 61 0;
#X connect 58 0 59 0;
#X connect 59 0 57 1;
#X connect 61 0 60 0;
#X connect 63 0 85 0;
#X connect 64 0 63 0;
#X connect 65 0 66 0;
#X connect 66 0 64 1;
#X connect 67 0 75 0;
#X connect 68 0 95 0;
#X connect 69 0 74 0;
#X connect 71 0 44 0;
#X connect 72 0 45 0;
#X connect 74 0 75 0;
#X connect 75 0 57 0;
#X connect 76 0 58 0;
#X connect 77 0 71 0;
#X connect 78 0 91 0;
#X connect 78 0 91 1;
#X connect 87 0 12 0;
#X connect 88 0 17 0;
#X connect 89 0 18 0;
#X connect 90 0 19 0;
#X connect 92 0 5 0;
#X connect 93 0 32 0;
#X connect 94 0 49 0;
#X connect 95 0 62 0;
