#N canvas 229 491 315 378 10;
#X declare -lib mrpeach;
#X obj 25 45 import mrpeach;
#X obj 103 247 packOSC;
#X obj 25 323 udpsend;
#X msg 24 81 connect localhost 9001;
#X msg 50 123 disconnect;
#X msg 103 206 send /test \$1;
#X obj 221 53 bng 15 250 50 0 empty empty empty 17 7 0 10 -262144 -1
-1;
#X text 25 14 Send OSC message;
#X obj 147 47 loadbang;
#X floatatom 103 171 5 0 0 0 - - -;
#X connect 1 0 2 0;
#X connect 3 0 2 0;
#X connect 4 0 2 0;
#X connect 5 0 1 0;
#X connect 6 0 9 0;
#X connect 8 0 3 0;
#X connect 9 0 5 0;
