#N canvas 273 241 887 634 10;
#X msg 13 80 bang;
#X obj 56 152 tor;
#X msg 55 245 azimuth: \$1 elevation: \$2 distance: \$3;
#X obj 56 290 print;
#X obj 55 208 pack f f f;
#X msg 13 118 tor -0.876811 0.544298 -0.450728;
#X obj 13 151 print;
#X obj 421 214 tor;
#X msg 421 285 azimuth: \$1 elevation: \$2 distance: \$3;
#X obj 422 330 print;
#X obj 421 248 pack f f f;
#X msg 421 186 tor \$1 \$2 \$3;
#X floatatom 420 99 5 0 0 0 - - -;
#X obj 421 81 hsl 128 10 -100 100 0 0 empty empty empty -2 -8 0 10
-4034 -1 -1 5800 1;
#X floatatom 577 100 5 0 0 0 - - -;
#X floatatom 729 100 5 0 0 0 - - -;
#X obj 580 82 hsl 128 10 -100 100 0 0 empty empty empty -2 -8 0 10
-4034 -1 -1 0 1;
#X obj 732 81 hsl 128 10 -100 100 0 0 empty empty empty -2 -8 0 10
-4034 -1 -1 0 1;
#X text 420 51 x in [-100 \, 100];
#X text 577 52 y in [-100 \, 100];
#X text 729 51 z in [-100 \, 100];
#X obj 419 141 pack f f f;
#X connect 0 0 5 0;
#X connect 1 0 4 0;
#X connect 1 1 4 1;
#X connect 1 2 4 2;
#X connect 2 0 3 0;
#X connect 4 0 2 0;
#X connect 5 0 1 0;
#X connect 5 0 6 0;
#X connect 7 0 10 0;
#X connect 7 1 10 1;
#X connect 7 2 10 2;
#X connect 8 0 9 0;
#X connect 10 0 8 0;
#X connect 11 0 7 0;
#X connect 12 0 21 0;
#X connect 13 0 12 0;
#X connect 14 0 21 1;
#X connect 15 0 21 2;
#X connect 16 0 14 0;
#X connect 17 0 15 0;
#X connect 21 0 11 0;
