#N canvas 181 36 1196 787 10;
#X obj 359 43 tor;
#X msg 359 114 azimuth: \$1 elevation: \$2 distance: \$3;
#X obj 360 159 print;
#X obj 359 77 pack f f f;
#X msg 359 15 tor \$1 \$2 \$3;
#X floatatom 358 -72 5 0 0 0 - - -;
#X obj 359 -90 hsl 128 10 -100 100 0 0 empty empty empty -2 -8 0 10
-4034 -1 -1 4700 1;
#X floatatom 515 -71 5 0 0 0 - - -;
#X floatatom 724 -67 5 0 0 0 - - -;
#X obj 518 -89 hsl 128 10 -100 100 0 0 empty empty empty -2 -8 0 10
-4034 -1 -1 7300 1;
#X obj 727 -86 hsl 128 10 -100 100 0 0 empty empty empty -2 -8 0 10
-4034 -1 -1 6100 1;
#X text 515 -119 y in [-100 \, 100];
#X text 724 -116 z in [-100 \, 100];
#X obj 357 -30 pack f f f;
#X obj -101 224 adc~ 1;
#X text 358 -120 x in [-100 \, 100];
#X msg 654 365 \; pd dsp 1;
#X obj -196 507 earplug~ 270 -25;
#N canvas 0 22 385 256 (subpatch) 0;
#X floatatom 261 193 0 0 0 0 cpu-meter - -;
#X obj 260 129 cputime;
#X obj 260 33 loadbang;
#X obj 260 80 metro 1000;
#X msg 260 61 1;
#X obj 260 108 t b b;
#X obj 260 170 * 0.1;
#X obj 260 150 int;
#X text 331 203 comment;
#X connect 1 0 7 0;
#X connect 2 0 4 0;
#X connect 3 0 5 0;
#X connect 4 0 3 0;
#X connect 5 0 1 0;
#X connect 5 1 1 1;
#X connect 6 0 0 0;
#X connect 7 0 6 0;
#X coords 0 1 100 -1 120 20 1;
#X restore -243 -112 graph;
#X msg 733 365 \; pd dsp 0;
#X obj -242 43 soundfiler;
#N canvas 0 22 450 300 (subpatch) 0;
#X array table 126421 float 0;
#X coords 0 1 126420 -1 100 60 1;
#X restore 667 282 graph;
#X obj -196 258 tabplay~ table;
#X text 656 401 audio on;
#X obj -196 534 dac~ 1 2;
#X text -294 505 filtered --->;
#X msg -146 226 stop;
#X msg -196 226 bang;
#X text -198 207 start;
#X obj -242 -40 openpanel;
#X obj -242 -60 bng 15 250 50 0 empty empty empty 17 7 0 10 -204786
-1 -1;
#X text -221 -61 <- open a soundfile;
#X msg -242 -19 read -resize \$1 table;
#X obj -233 0 loadbang;
#X msg -233 20 read -resize voice.wav table;
#X obj 239 -94 tgl 15 0 empty empty empty 17 7 0 10 -262144 -1 -1 1
1;
#X obj 239 -71 metro 100;
#X connect 0 0 3 0;
#X connect 0 0 17 1;
#X connect 0 1 3 1;
#X connect 0 1 17 2;
#X connect 0 2 3 2;
#X connect 1 0 2 0;
#X connect 3 0 1 0;
#X connect 4 0 0 0;
#X connect 5 0 13 0;
#X connect 6 0 5 0;
#X connect 7 0 13 1;
#X connect 8 0 13 2;
#X connect 9 0 7 0;
#X connect 10 0 8 0;
#X connect 13 0 4 0;
#X connect 17 0 24 0;
#X connect 17 1 24 1;
#X connect 22 0 17 0;
#X connect 22 1 27 0;
#X connect 26 0 22 0;
#X connect 27 0 22 0;
#X connect 29 0 32 0;
#X connect 30 0 29 0;
#X connect 32 0 20 0;
#X connect 33 0 34 0;
#X connect 34 0 20 0;
#X connect 35 0 36 0;
#X connect 36 0 13 0;
