#N canvas 549 22 871 806 10;
#N canvas 71 22 547 656 DEFINITIONS 0;
#X obj 111 102 PI;
#X obj 111 127 v pi;
#X obj 111 80 bng 15 250 50 0 empty empty empty 17 7 0 10 -262144 -1
-1;
#X floatatom 67 337 10 0 0 0 - - -;
#X obj 67 359 v T;
#X obj 23 -21 loadbang;
#X obj 93 359 s T;
#X obj 53 466 s freq;
#X obj 53 419 expr 44100/$f1;
#X obj 67 314 expr $f1/44100;
#X obj 53 376 bng 15 250 50 0 empty empty empty 17 7 0 10 -262144 -1
-1;
#X floatatom 53 443 15 0 0 0 - - -;
#X obj 53 396 f 64;
#X obj 67 292 f 64;
#X floatatom 38 532 10 0 0 0 - - -;
#X obj 38 488 bng 15 250 50 0 empty empty empty 17 7 0 10 -262144 -1
-1;
#X obj 38 508 expr 1/44100.0;
#X obj 100 555 s delta_t;
#X obj 38 555 v delta_t;
#X obj 23 7 bng 15 250 50 0 empty empty empty 17 7 0 10 -262144 -1
-1;
#X text 127 359 -> Definition of T: length of a block in seconds;
#X text 98 383 -> frequency that the phasor should run to get 64 samples
equally spaced in one block of T seconds;
#X text 166 555 -> increment of the integral \, here is the lenght
of one sample in seconds;
#X floatatom 82 245 10 0 0 0 - - -;
#X obj 82 222 expr $f1/44100;
#X obj 82 267 v T2;
#X obj 108 267 s T2;
#X obj 82 200 f 2048;
#X text 142 267 -> Definition of T2: length of a big block in seconds
;
#X obj 96 178 v nu;
#X text 139 180 -> Value of nu constant;
#X obj 24 581 outlet;
#X obj 24 28 t b b b b b b b;
#X obj 80 -21 inlet;
#X msg 96 155 1e-05;
#X connect 0 0 1 0;
#X connect 2 0 0 0;
#X connect 3 0 4 0;
#X connect 3 0 6 0;
#X connect 5 0 19 0;
#X connect 8 0 11 0;
#X connect 9 0 3 0;
#X connect 10 0 12 0;
#X connect 11 0 7 0;
#X connect 12 0 8 0;
#X connect 13 0 9 0;
#X connect 14 0 17 0;
#X connect 14 0 18 0;
#X connect 15 0 16 0;
#X connect 16 0 14 0;
#X connect 19 0 32 0;
#X connect 23 0 25 0;
#X connect 23 0 26 0;
#X connect 24 0 23 0;
#X connect 27 0 24 0;
#X connect 32 0 31 0;
#X connect 32 1 15 0;
#X connect 32 2 10 0;
#X connect 32 3 13 0;
#X connect 32 4 27 0;
#X connect 32 5 34 0;
#X connect 32 6 2 0;
#X connect 33 0 19 0;
#X connect 34 0 29 0;
#X restore 139 86 pd DEFINITIONS;
#X obj 321 129 hanning_2048;
#N canvas 94 22 728 454 time_samples 0;
#X obj 42 30 int;
#X obj 69 30 + 1;
#X floatatom 42 53 20 0 0 0 - - -;
#X obj 42 147 *~ 0.00145125;
#X obj 14 196 +~;
#X obj 42 120 sig~;
#X msg 57 6 0;
#X obj 14 229 outlet~;
#X obj 111 -18 inlet;
#X text 155 -19 ->reset counter;
#X obj 42 -19 bang~;
#X obj 14 103 phasor~ 689.062;
#X msg 101 28 0;
#X obj 14 171 *~ 0.00145125;
#X obj 115 120 r T;
#X obj 142 121 r T;
#X obj 14 77 r freq;
#X obj 125 229 outlet;
#N canvas 0 22 450 300 (subpatch) 0;
#X array time_sample 64 float 3;
#A 0 0 0.015625 0.03125 0.046875 0.0625 0.078125 0.09375 0.109375 0.125
0.140625 0.15625 0.171875 0.1875 0.203125 0.21875 0.234375 0.25 0.265625
0.28125 0.296875 0.3125 0.328125 0.34375 0.359375 0.375 0.390625 0.40625
0.421875 0.4375 0.453125 0.46875 0.484375 0.5 0.515625 0.53125 0.546875
0.5625 0.578125 0.59375 0.609375 0.625 0.640625 0.65625 0.671875 0.6875
0.703125 0.71875 0.734375 0.75 0.765625 0.78125 0.796875 0.8125 0.828125
0.84375 0.859375 0.875 0.890625 0.90625 0.921875 0.9375 0.953125 0.96875
0.984375;
#X coords 0 1 63 -1 200 140 1;
#X restore 401 241 graph;
#X obj 310 15 until;
#X obj 326 42 int;
#X obj 366 15 + 1;
#X obj 401 40 t f f;
#X msg 362 -11 0;
#X msg 308 -9 64;
#X obj 327 72 / 64;
#X obj 371 94 tabwrite time_sample;
#X obj 239 266 phasor~;
#X obj 258 172 bng 15 250 50 0 empty empty empty 17 7 0 10 -262144
-1 -1;
#X obj 241 322 tabread4~ time_sample;
#X obj 222 203 expr 44100.0/64;
#X obj 240 295 *~ 64;
#X obj 241 348 /~ 64;
#X connect 0 0 1 0;
#X connect 0 0 2 0;
#X connect 1 0 0 1;
#X connect 2 0 5 0;
#X connect 2 0 17 0;
#X connect 3 0 4 1;
#X connect 4 0 7 0;
#X connect 5 0 3 0;
#X connect 6 0 0 1;
#X connect 8 0 6 0;
#X connect 10 0 0 0;
#X connect 10 0 12 0;
#X connect 11 0 13 0;
#X connect 12 0 11 1;
#X connect 12 0 27 1;
#X connect 13 0 4 0;
#X connect 14 0 3 1;
#X connect 15 0 13 1;
#X connect 16 0 11 0;
#X connect 19 0 20 0;
#X connect 20 0 21 0;
#X connect 20 0 22 0;
#X connect 21 0 20 1;
#X connect 22 0 25 0;
#X connect 22 1 26 1;
#X connect 23 0 20 1;
#X connect 24 0 19 0;
#X connect 25 0 26 0;
#X connect 27 0 31 0;
#X connect 28 0 30 0;
#X connect 29 0 32 0;
#X connect 30 0 27 0;
#X connect 31 0 29 0;
#X restore 31 87 pd time_samples;
#X obj 31 64 bng 15 250 50 0 empty empty empty 17 7 0 10 -262144 -1
-1;
#X text 50 63 reset counter;
#X obj 235 46 adc~;
#X obj 428 115 dac~;
#X obj 268 100 / 127;
#X obj 267 80 hsl 128 15 0 127 0 0 empty empty empty -2 -8 0 10 -262144
-1 -1 0 1;
#X obj 268 123 * 20;
#X obj 235 147 *~ 0.1;
#X obj 235 173 s~ input_audio;
#X obj 31 115 s~ time_sample;
#X obj 139 135 s DEF_bang;
#X obj 139 111 bng 15 250 50 0 empty empty empty 17 7 0 10 -262144
-1 -1;
#X obj 139 65 bng 15 250 50 0 empty empty empty 17 7 0 10 -262144 -1
-1;
#X obj 428 82 catch~ out_audio;
#X text 398 179 -> a = 100 \, b = 271;
#X msg 105 293 100 200 300 400 500 600 700 800;
#X msg 105 342 110 210 310 410 510 610 710 810;
#X obj 62 245 bng 15 250 50 0 empty empty empty 17 7 0 10 -262144 -1
-1;
#X msg 104 392 900 1000 1100 1200 1300 1400 1500 1600;
#X obj 103 470 partial_bundle_manifold;
#X msg 103 445 910 1010 1110 1210 1310 1410 1510 1610;
#X obj 478 267 v a;
#X obj 519 265 v b;
#X obj 625 314 until;
#X obj 624 353 int;
#X obj 649 355 + 1;
#X obj 623 334 bng 15 250 50 0 empty empty empty 17 7 0 10 -262144
-1 -1;
#X obj 519 332 until;
#X obj 518 371 int;
#X obj 543 373 + 1;
#X obj 517 352 bng 15 250 50 0 empty empty empty 17 7 0 10 -262144
-1 -1;
#X msg 631 285 4;
#X obj 481 410 expr sqrt(a*a*$f1*$f1 + b*b*$f2*$f2);
#X msg 612 240 0;
#X obj 619 378 t b b f;
#X msg 560 335 0;
#X obj 420 545 list append;
#X obj 585 507 t l;
#X obj 468 501 list prepend;
#X obj 420 519 bng 15 250 50 0 empty empty empty 17 7 0 10 -262144
-1 -1;
#X obj 545 458 bng 15 250 50 0 empty empty empty 17 7 0 10 -262144
-1 -1;
#X msg 518 302 8;
#X obj 420 577 list split 8;
#X obj 506 576 t l;
#X obj 281 714 int;
#X obj 318 713 + 1;
#X msg 299 685 0;
#X obj 397 725 list append;
#X obj 381 635 t b l;
#X obj 386 765 route 0 1 2 3;
#X obj 523 722 print;
#X msg 476 235 120;
#X obj 231 235 soundfiler;
#X obj 652 134 readsf~;
#X msg 551 68 open /Users/skrako/Desktop/passaros_2_min.aiff;
#X msg 644 20 start;
#X obj 566 665 writesf~;
#X obj 724 168 / 127;
#X obj 723 148 hsl 128 15 0 127 0 0 empty empty empty -2 -8 0 10 -262144
-1 -1 0 1;
#X obj 724 191 * 20;
#X obj 691 215 *~ 0.1;
#X msg 519 238 310;
#X msg 660 104 stop;
#X msg 570 586 open /Users/skrako/Desktop/algo_1.aiff;
#X msg 603 615 start;
#X msg 658 634 stop;
#X obj 105 318 partial_bundle_manifold;
#X obj 105 367 partial_bundle_manifold;
#X obj 104 417 partial_bundle_manifold;
#X obj 814 286 bng 15 250 50 0 empty empty empty 17 7 0 10 -262144
-1 -1;
#X obj 777 191 bng 15 250 50 0 empty empty empty 17 7 0 10 -262144
-1 -1;
#X obj 778 230 t b b b;
#X connect 0 0 14 0;
#X connect 2 0 12 0;
#X connect 3 0 2 0;
#X connect 5 0 10 0;
#X connect 7 0 9 0;
#X connect 8 0 7 0;
#X connect 9 0 10 1;
#X connect 10 0 11 0;
#X connect 14 0 13 0;
#X connect 15 0 0 0;
#X connect 16 0 6 0;
#X connect 16 0 6 1;
#X connect 16 0 59 0;
#X connect 18 0 69 0;
#X connect 19 0 70 0;
#X connect 20 0 18 0;
#X connect 20 0 19 0;
#X connect 20 0 21 0;
#X connect 20 0 23 0;
#X connect 21 0 71 0;
#X connect 23 0 22 0;
#X connect 26 0 29 0;
#X connect 27 0 28 0;
#X connect 27 0 37 0;
#X connect 28 0 27 1;
#X connect 29 0 27 0;
#X connect 30 0 33 0;
#X connect 31 0 32 0;
#X connect 31 0 35 0;
#X connect 32 0 31 1;
#X connect 33 0 31 0;
#X connect 34 0 26 0;
#X connect 35 0 41 0;
#X connect 36 0 27 1;
#X connect 37 0 44 0;
#X connect 37 1 38 0;
#X connect 37 2 35 1;
#X connect 38 0 31 1;
#X connect 39 0 45 0;
#X connect 39 0 53 0;
#X connect 40 0 41 1;
#X connect 41 0 40 0;
#X connect 41 0 39 1;
#X connect 42 0 39 0;
#X connect 43 0 41 1;
#X connect 44 0 30 0;
#X connect 45 0 51 0;
#X connect 45 1 46 0;
#X connect 46 0 45 0;
#X connect 47 0 48 0;
#X connect 47 0 50 0;
#X connect 48 0 47 1;
#X connect 49 0 47 1;
#X connect 50 0 52 0;
#X connect 51 0 47 0;
#X connect 51 1 50 1;
#X connect 52 0 69 0;
#X connect 52 1 70 0;
#X connect 52 2 71 0;
#X connect 52 3 22 0;
#X connect 54 0 24 0;
#X connect 56 0 10 0;
#X connect 56 0 63 0;
#X connect 57 0 56 0;
#X connect 58 0 56 0;
#X connect 60 0 62 0;
#X connect 61 0 60 0;
#X connect 62 0 63 1;
#X connect 63 0 6 0;
#X connect 63 0 6 1;
#X connect 63 0 59 0;
#X connect 64 0 25 0;
#X connect 65 0 56 0;
#X connect 66 0 59 0;
#X connect 67 0 59 0;
#X connect 68 0 59 0;
#X connect 72 0 64 0;
#X connect 72 0 54 0;
#X connect 72 0 36 0;
#X connect 72 0 38 0;
#X connect 72 0 43 0;
#X connect 73 0 74 0;
#X connect 74 0 42 0;
#X connect 74 1 49 0;
#X connect 74 2 72 0;
