#N canvas 198 23 1076 837 10;
#X obj 211 579 dac~;
#X obj 50 178 dirac~;
#X msg 50 158 0;
#X obj 187 200 osc~;
#X obj 187 174 mtof;
#X floatatom 187 151 5 0 0 0 - - -;
#X obj 429 368 soundfiler;
#X obj 429 269 loadbang;
#X obj 211 551 *~;
#X obj 312 292 openpanel;
#X obj 312 319 t b s;
#X obj 312 250 bng 32 250 50 0 empty empty empty 0 -6 0 8 -260818 -1
-1;
#X obj 341 476 vsl 8 128 0 100 0 1 empty empty empty 0 -8 0 8 -260818
-1 -1 12700 1;
#X text 310 229 load a soundfile to use as the impulse response;
#X text 19 137 test with an impulse;
#X obj 447 398 table irL;
#X msg 282 360 set irL;
#X msg 351 360 set irR;
#X obj 240 551 *~;
#X msg 437 343 read -resize \$1 irL irR;
#X obj 447 420 table irR;
#X msg 280 200 0.1;
#X obj 187 222 *~ 0;
#X obj 281 525 dbtorms;
#X text 236 165 test with a sine;
#X obj 120 197 adc~ 1;
#X text 36 54 version 0.2 \, August 12 \, 2005;
#X text 268 53 [partconv~ <IR array> <partition size>];
#X text 268 81 The partition size must be a power of 2 greater than
or equal to the block size. Larger partition sizes are more efficient
\, to a point \, but increase latency (the delay between input and
output is equal to the partition size minus the block size).;
#X obj 470 600 green_fn;
#X obj 136 436 partconv~ green 2048;
#X obj 269 436 partconv~ green 2048;
#X obj 680 506 readsf~;
#X msg 672 392 start;
#X obj 752 540 / 127;
#X obj 751 520 hsl 128 15 0 127 0 0 empty empty empty -2 -8 0 10 -262144
-1 -1 10400 1;
#X obj 719 587 *~ 0.1;
#X obj 386 744 writesf~;
#X msg 414 717 start;
#X msg 463 721 stop;
#X msg 397 678 open /Users/JRLetelier/Desktop/test3_L_100_nu_1e-4.aiff
;
#X msg 429 293 read -resize cymbal.wav irL;
#X msg 429 317 read -resize cymbal.wav irR;
#X msg 579 440 open /Users/JRLetelier/Desktop/cymbal.aiff;
#X msg 242 198 0;
#X connect 2 0 1 0;
#X connect 3 0 22 0;
#X connect 4 0 3 0;
#X connect 5 0 4 0;
#X connect 7 0 41 0;
#X connect 7 0 42 0;
#X connect 8 0 0 0;
#X connect 8 0 37 0;
#X connect 9 0 10 0;
#X connect 10 0 16 0;
#X connect 10 0 17 0;
#X connect 10 1 19 0;
#X connect 11 0 9 0;
#X connect 12 0 23 0;
#X connect 16 0 30 0;
#X connect 17 0 31 0;
#X connect 18 0 0 1;
#X connect 19 0 6 0;
#X connect 21 0 22 1;
#X connect 23 0 8 1;
#X connect 23 0 18 1;
#X connect 25 0 30 0;
#X connect 25 0 31 0;
#X connect 30 0 8 0;
#X connect 31 0 18 0;
#X connect 32 0 36 0;
#X connect 33 0 32 0;
#X connect 34 0 36 1;
#X connect 35 0 34 0;
#X connect 38 0 37 0;
#X connect 39 0 37 0;
#X connect 40 0 37 0;
#X connect 41 0 6 0;
#X connect 42 0 6 0;
#X connect 43 0 32 0;
#X connect 44 0 22 1;
