#N canvas 364 44 846 798 10;
#X declare -lib mrpeach;
#X obj 392 468 dac~;
#X obj 605 100 loadbang;
#X obj 388 396 *~;
#X obj 489 137 openpanel;
#X obj 489 164 t b s;
#X obj 489 95 bng 32 250 50 0 empty empty empty 0 -6 0 8 -260818 -1
-1;
#X obj 234 301 vsl 8 128 0 100 0 1 empty empty empty 0 -8 0 8 -260818
-1 -1 7400 1;
#X text 487 74 load a soundfile to use as the impulse response;
#X text 292 7 partitioned convolution external;
#X obj 624 243 table irL;
#X msg 459 205 set irL;
#X msg 528 205 set irR;
#X obj 417 396 *~;
#X obj 624 265 table irR;
#X obj 288 347 dbtorms;
#X text 197 8 partconv~;
#X obj 313 281 partconv~ irL 2048;
#X obj 227 112 vu 15 120 empty empty -1 -8 0 10 -66577 -1 1 0;
#X obj 226 73 pvu~;
#X obj 479 325 vu 15 120 empty empty -1 -8 0 10 -66577 -1 1 0;
#X obj 477 473 pvu~;
#X obj 553 326 vu 15 120 empty empty -1 -8 0 10 -66577 -1 1 0;
#X obj 551 474 pvu~;
#X msg 605 139 read -resize test.wav irL;
#X msg 801 140 read -resize test.wav irR;
#X msg 616 168 read -resize \$1 irL irR;
#X obj 605 201 soundfiler;
#X obj 446 281 partconv~ irL 2048;
#X obj 29 61 import mrpeach;
#X obj 30 118 udpreceive 9001;
#X obj 30 176 unpackOSC;
#X obj 30 267 print;
#X text 27 20 Receive OSC message;
#X obj 298 42 adc~ 2;
#X obj 30 219 routeOSC /;
#X connect 1 0 23 0;
#X connect 1 0 24 0;
#X connect 2 0 0 0;
#X connect 2 0 20 0;
#X connect 3 0 4 0;
#X connect 4 0 10 0;
#X connect 4 0 11 0;
#X connect 4 1 25 0;
#X connect 5 0 3 0;
#X connect 6 0 14 0;
#X connect 10 0 16 0;
#X connect 10 0 27 0;
#X connect 12 0 0 1;
#X connect 12 0 22 0;
#X connect 14 0 2 1;
#X connect 14 0 12 1;
#X connect 16 0 2 0;
#X connect 18 0 17 0;
#X connect 20 0 19 0;
#X connect 22 0 21 0;
#X connect 23 0 26 0;
#X connect 24 0 26 0;
#X connect 25 0 26 0;
#X connect 27 0 12 0;
#X connect 29 0 30 0;
#X connect 30 0 34 0;
#X connect 33 0 16 0;
#X connect 33 0 18 0;
#X connect 33 0 27 0;
#X connect 34 0 31 0;
