#N canvas 517 22 806 826 10;
#X obj 125 406 table green;
#X obj 373 353 expr 2*pi*$f1/L;
#X obj 379 239 until;
#X obj 412 272 int;
#X obj 441 272 + 1;
#X msg 431 239 0;
#X obj 373 183 t b b;
#X obj 373 153 bng 15 250 50 0 empty empty empty 17 7 0 10 -262144
-1 -1;
#X obj 373 395 print;
#X obj 287 460 PI;
#X obj 287 489 v pi;
#X obj 287 421 bng 15 250 50 0 empty empty empty 17 7 0 10 -262144
-1 -1;
#X obj 388 449 v L;
#X text 471 350 ->eigen_values torus 1;
#X obj 207 242 until;
#X obj 240 275 int;
#X obj 269 275 + 1;
#X obj 201 186 t b b;
#X obj 201 156 bng 15 250 50 0 empty empty empty 17 7 0 10 -262144
-1 -1;
#X obj 43 361 tabwrite green;
#X obj 67 182 f;
#X obj 47 225 +;
#X msg 83 150 0;
#X obj 39 153 t f b;
#X obj 150 310 t b b b f f;
#X obj 265 42 v nu;
#X msg 262 14 0.0001;
#X obj 353 42 v c;
#X msg 355 15 340;
#X obj 479 100 bng 15 250 50 0 empty empty empty 17 7 0 10 -262144
-1 -1;
#X obj 242 344 / 44100;
#X obj 514 194 v CTE;
#X obj 514 161 expr nu*nu/(c*c);
#X obj 517 135 bng 15 250 50 0 empty empty empty 17 7 0 10 -262144
-1 -1;
#X obj 472 48 loadbang;
#X msg 373 206 10;
#X msg 259 242 0;
#X obj 92 314 f;
#X obj 104 498 expr exp((-1)*$f1*nu*$f2);
#X obj 61 85 expr exp((-1)*$f1*nu*$f2)*cos(sqrt($f1)*c*sqrt(1-($f1*CTE)*$f2))
;
#X obj 375 314 + 0;
#X obj 47 288 bng 15 250 50 0 empty empty empty 17 7 0 10 -262144 -1
-1;
#X obj 479 271 int;
#X obj 508 271 + 1;
#X msg 498 238 1;
#X msg 201 209 220500;
#X obj 380 556 expr 2*exp((-4)*0.0001*$f1*$f1*$f2/(L*L))*cos(2136*$f1*$f2/L)
;
#X msg 387 426 100;
#X text 227 152 ->start;
#X connect 1 0 38 0;
#X connect 1 0 39 0;
#X connect 2 0 3 0;
#X connect 2 0 42 0;
#X connect 3 0 4 0;
#X connect 3 0 40 0;
#X connect 4 0 3 1;
#X connect 5 0 3 1;
#X connect 6 0 35 0;
#X connect 6 1 5 0;
#X connect 6 1 44 0;
#X connect 7 0 6 0;
#X connect 9 0 10 0;
#X connect 11 0 9 0;
#X connect 14 0 15 0;
#X connect 15 0 16 0;
#X connect 15 0 24 0;
#X connect 16 0 15 1;
#X connect 17 0 45 0;
#X connect 17 1 36 0;
#X connect 18 0 17 0;
#X connect 20 0 21 1;
#X connect 21 0 20 1;
#X connect 21 0 37 1;
#X connect 22 0 20 1;
#X connect 23 0 21 0;
#X connect 23 1 20 0;
#X connect 24 0 37 0;
#X connect 24 1 7 0;
#X connect 24 2 22 0;
#X connect 24 3 30 0;
#X connect 24 4 19 1;
#X connect 26 0 25 0;
#X connect 28 0 27 0;
#X connect 29 0 28 0;
#X connect 29 0 26 0;
#X connect 29 0 11 0;
#X connect 29 0 47 0;
#X connect 29 0 33 0;
#X connect 30 0 38 1;
#X connect 30 0 39 1;
#X connect 30 0 46 1;
#X connect 32 0 31 0;
#X connect 33 0 32 0;
#X connect 34 0 29 0;
#X connect 35 0 2 0;
#X connect 36 0 15 1;
#X connect 37 0 19 0;
#X connect 37 0 8 0;
#X connect 40 0 1 0;
#X connect 41 0 37 0;
#X connect 42 0 43 0;
#X connect 42 0 46 0;
#X connect 43 0 42 1;
#X connect 44 0 42 1;
#X connect 45 0 14 0;
#X connect 46 0 23 0;
#X connect 47 0 12 0;
