#N canvas 0 22 1388 610 10;
#X obj 18 238 manifold_partial;
#X obj 51 405 / 127;
#X obj 51 429 * 10;
#X obj 51 263 vsl 15 128 0 127 0 0 empty empty empty 0 -9 0 10 -262144
-1 -1 10000 1;
#X obj 18 453 *~ 0.1;
#X obj 49 185 r~ input_audio;
#X obj 18 160 r~ time_sample;
#X obj 111 211 r DEF_bang;
#X obj 18 478 throw~ out_audio;
#X obj 183 237 manifold_partial;
#X obj 216 404 / 127;
#X obj 216 428 * 10;
#X obj 216 262 vsl 15 128 0 127 0 0 empty empty empty 0 -9 0 10 -262144
-1 -1 10000 1;
#X obj 183 452 *~ 0.1;
#X obj 214 184 r~ input_audio;
#X obj 183 159 r~ time_sample;
#X obj 276 210 r DEF_bang;
#X obj 183 477 throw~ out_audio;
#X obj 352 237 manifold_partial;
#X obj 385 404 / 127;
#X obj 385 428 * 10;
#X obj 385 262 vsl 15 128 0 127 0 0 empty empty empty 0 -9 0 10 -262144
-1 -1 10000 1;
#X obj 352 452 *~ 0.1;
#X obj 383 184 r~ input_audio;
#X obj 352 159 r~ time_sample;
#X obj 445 210 r DEF_bang;
#X obj 352 477 throw~ out_audio;
#X obj 517 236 manifold_partial;
#X obj 550 403 / 127;
#X obj 550 427 * 10;
#X obj 550 261 vsl 15 128 0 127 0 0 empty empty empty 0 -9 0 10 -262144
-1 -1 10000 1;
#X obj 517 451 *~ 0.1;
#X obj 548 183 r~ input_audio;
#X obj 517 158 r~ time_sample;
#X obj 610 209 r DEF_bang;
#X obj 517 476 throw~ out_audio;
#X obj 684 234 manifold_partial;
#X obj 717 401 / 127;
#X obj 717 425 * 10;
#X obj 717 259 vsl 15 128 0 127 0 0 empty empty empty 0 -9 0 10 -262144
-1 -1 10000 1;
#X obj 684 449 *~ 0.1;
#X obj 715 181 r~ input_audio;
#X obj 684 156 r~ time_sample;
#X obj 777 207 r DEF_bang;
#X obj 684 474 throw~ out_audio;
#X obj 849 233 manifold_partial;
#X obj 882 400 / 127;
#X obj 882 258 vsl 15 128 0 127 0 0 empty empty empty 0 -9 0 10 -262144
-1 -1 10000 1;
#X obj 849 448 *~ 0.1;
#X obj 880 180 r~ input_audio;
#X obj 849 155 r~ time_sample;
#X obj 942 206 r DEF_bang;
#X obj 849 473 throw~ out_audio;
#X obj 1018 233 manifold_partial;
#X obj 1051 400 / 127;
#X obj 1051 258 vsl 15 128 0 127 0 0 empty empty empty 0 -9 0 10 -262144
-1 -1 10000 1;
#X obj 1018 448 *~ 0.1;
#X obj 1049 180 r~ input_audio;
#X obj 1018 155 r~ time_sample;
#X obj 1111 206 r DEF_bang;
#X obj 1018 473 throw~ out_audio;
#X obj 1183 232 manifold_partial;
#X obj 1216 399 / 127;
#X obj 1216 257 vsl 15 128 0 127 0 0 empty empty empty 0 -9 0 10 -262144
-1 -1 10000 1;
#X obj 1183 447 *~ 0.1;
#X obj 1214 179 r~ input_audio;
#X obj 1183 154 r~ time_sample;
#X obj 1276 205 r DEF_bang;
#X obj 1183 472 throw~ out_audio;
#X obj 882 424 * 10;
#X obj 1051 424 * 10;
#X obj 1216 423 * 10;
#X obj 594 71 unpack 0 0 0 0 0 0 0 0;
#X obj 594 44 inlet;
#X msg 773 69 100;
#X obj 773 45 loadbang;
#X floatatom 80 212 5 0 0 0 - - -;
#X floatatom 245 211 5 0 0 0 - - -;
#X floatatom 414 212 5 0 0 0 - - -;
#X floatatom 579 209 5 0 0 0 - - -;
#X floatatom 745 208 5 0 0 0 - - -;
#X floatatom 911 207 5 0 0 0 - - -;
#X floatatom 1080 207 5 0 0 0 - - -;
#X floatatom 1245 206 5 0 0 0 - - -;
#X connect 0 0 4 0;
#X connect 1 0 2 0;
#X connect 2 0 4 1;
#X connect 3 0 1 0;
#X connect 4 0 8 0;
#X connect 5 0 0 1;
#X connect 6 0 0 0;
#X connect 7 0 0 3;
#X connect 9 0 13 0;
#X connect 10 0 11 0;
#X connect 11 0 13 1;
#X connect 12 0 10 0;
#X connect 13 0 17 0;
#X connect 14 0 9 1;
#X connect 15 0 9 0;
#X connect 16 0 9 3;
#X connect 18 0 22 0;
#X connect 19 0 20 0;
#X connect 20 0 22 1;
#X connect 21 0 19 0;
#X connect 22 0 26 0;
#X connect 23 0 18 1;
#X connect 24 0 18 0;
#X connect 25 0 18 3;
#X connect 27 0 31 0;
#X connect 28 0 29 0;
#X connect 29 0 31 1;
#X connect 30 0 28 0;
#X connect 31 0 35 0;
#X connect 32 0 27 1;
#X connect 33 0 27 0;
#X connect 34 0 27 3;
#X connect 36 0 40 0;
#X connect 37 0 38 0;
#X connect 38 0 40 1;
#X connect 39 0 37 0;
#X connect 40 0 44 0;
#X connect 41 0 36 1;
#X connect 42 0 36 0;
#X connect 43 0 36 3;
#X connect 45 0 48 0;
#X connect 46 0 69 0;
#X connect 47 0 46 0;
#X connect 48 0 52 0;
#X connect 49 0 45 1;
#X connect 50 0 45 0;
#X connect 51 0 45 3;
#X connect 53 0 56 0;
#X connect 54 0 70 0;
#X connect 55 0 54 0;
#X connect 56 0 60 0;
#X connect 57 0 53 1;
#X connect 58 0 53 0;
#X connect 59 0 53 3;
#X connect 61 0 64 0;
#X connect 62 0 71 0;
#X connect 63 0 62 0;
#X connect 64 0 68 0;
#X connect 65 0 61 1;
#X connect 66 0 61 0;
#X connect 67 0 61 3;
#X connect 69 0 48 1;
#X connect 70 0 56 1;
#X connect 71 0 64 1;
#X connect 72 0 76 0;
#X connect 72 1 77 0;
#X connect 72 2 78 0;
#X connect 72 3 79 0;
#X connect 72 4 80 0;
#X connect 72 5 81 0;
#X connect 72 6 82 0;
#X connect 72 7 83 0;
#X connect 73 0 72 0;
#X connect 74 0 3 0;
#X connect 74 0 12 0;
#X connect 74 0 21 0;
#X connect 74 0 30 0;
#X connect 74 0 39 0;
#X connect 74 0 47 0;
#X connect 74 0 55 0;
#X connect 74 0 63 0;
#X connect 75 0 74 0;
#X connect 76 0 0 2;
#X connect 77 0 9 2;
#X connect 78 0 18 2;
#X connect 79 0 27 2;
#X connect 80 0 36 2;
#X connect 81 0 45 2;
#X connect 82 0 53 2;
#X connect 83 0 61 2;
