#N canvas 657 23 504 807 10;
#X declare -lib mrpeach;
#X obj 29 762 dac~;
#X obj 26 663 *~;
#X obj 41 496 vsl 8 128 0 100 0 1 empty empty empty 0 -8 0 8 -260818
-1 -1 10541 1;
#X text 292 7 partitioned convolution external;
#X obj 156 114 table irL;
#X msg 24 418 set irL;
#X obj 62 664 *~;
#X obj 40 631 dbtorms;
#X text 197 8 partconv~;
#X obj 25 453 partconv~ irL 2048;
#X obj 341 505 vu 15 120 empty empty -1 -8 0 10 -66577 -1 1 0;
#X obj 303 654 pvu~;
#X obj 91 688 pvu~;
#X obj 253 506 vu 15 120 empty empty -1 -8 0 10 -66577 -1 1 0;
#X obj 160 651 pvu~;
#X obj 142 418 adc~ 2;
#X obj 47 399 soundfiler;
#X obj 29 50 import mrpeach;
#X obj 28 115 udpreceive 9001;
#X obj 28 142 unpackOSC;
#X text 27 9 Receive OSC message;
#X obj 28 167 routeOSC /;
#X obj 28 193 symbol;
#X msg 276 193 \; pd dsp 1;
#X obj 276 170 loadbang;
#X floatatom 67 499 5 0 0 0 - - -;
#X obj 97 295 bng 15 250 50 0 empty empty empty 17 7 0 10 -262144 -1
-1;
#X obj 67 295 bng 15 250 50 0 empty empty empty 17 7 0 10 -262144 -1
-1;
#X obj 126 295 bng 15 250 50 0 empty empty empty 17 7 0 10 -262144
-1 -1;
#X obj 158 295 bng 15 250 50 0 empty empty empty 17 7 0 10 -262144
-1 -1;
#X obj 28 217 t b s l;
#X obj 67 245 list trim;
#X obj 67 273 route e3 s2e1 h2e1 s3;
#X msg 67 317 98;
#X obj 29 727 clip~ -1 1;
#X obj 143 728 compressor~;
#X floatatom 204 669 5 -100 500 0 - - -;
#X obj 206 703 / 100;
#X msg 126 317 83;
#X msg 158 317 81;
#X msg 97 317 59;
#X obj 149 198 print;
#X obj 160 449 partconv~ irL 2048;
#X msg 47 343 read -resize /Users/JRLetelier/perso/espaces/dev/installation/server/pd_server/ressources/ecm2016/\$1.wav
irL;
#X connect 1 0 35 0;
#X connect 1 0 11 0;
#X connect 2 0 7 0;
#X connect 2 0 25 0;
#X connect 5 0 9 0;
#X connect 5 0 42 0;
#X connect 6 0 14 0;
#X connect 7 0 1 1;
#X connect 7 0 6 1;
#X connect 9 0 1 0;
#X connect 11 0 10 0;
#X connect 14 0 13 0;
#X connect 15 0 9 0;
#X connect 15 0 42 0;
#X connect 18 0 19 0;
#X connect 19 0 21 0;
#X connect 21 0 22 0;
#X connect 21 0 41 0;
#X connect 22 0 30 0;
#X connect 24 0 23 0;
#X connect 26 0 40 0;
#X connect 27 0 33 0;
#X connect 28 0 38 0;
#X connect 29 0 39 0;
#X connect 30 0 5 0;
#X connect 30 1 43 0;
#X connect 30 2 31 0;
#X connect 31 0 32 0;
#X connect 32 0 27 0;
#X connect 32 1 26 0;
#X connect 32 2 28 0;
#X connect 32 3 29 0;
#X connect 33 0 2 0;
#X connect 34 0 0 0;
#X connect 34 0 0 1;
#X connect 35 0 34 0;
#X connect 36 0 37 0;
#X connect 37 0 35 1;
#X connect 38 0 2 0;
#X connect 39 0 2 0;
#X connect 40 0 2 0;
#X connect 42 0 6 0;
#X connect 43 0 16 0;
