#N canvas 28 183 327 500 10;
#X declare -lib mrpeach;
#X obj -364 -80 import mrpeach;
#X obj -365 177 udpsend;
#X msg -306 128 disconnect;
#X msg -364 15 connect localhost 9001;
#X obj -198 228 unpackOSC;
#X obj -198 269 routeOSC /pd;
#X obj -198 306 pack s;
#X obj -198 189 udpreceive 9002;
#X text -261 100 * disconnect;
#X obj -198 345 outlet;
#X text -318 -19 * connect to computing IR server;
#X obj -341 50 inlet;
#X text -197 374 * ir path outlet;
#X obj -364 -20 inlet;
#X obj -306 101 inlet;
#X text -297 49 * OSC message;
#X obj -366 216 outlet;
#X text -366 244 * server state outlet;
#X connect 1 0 16 0;
#X connect 2 0 1 0;
#X connect 3 0 1 0;
#X connect 4 0 5 0;
#X connect 5 0 6 0;
#X connect 6 0 9 0;
#X connect 7 0 4 0;
#X connect 11 0 1 0;
#X connect 13 0 3 0;
#X connect 14 0 2 0;
