#N canvas 510 52 542 699 10;
#X obj -203 40 soundfiler;
#X obj -230 -12 t b s;
#X obj -231 -178 inlet;
#X obj -316 94 inlet~;
#X obj -231 -118 tgl 15 0 empty empty empty 17 7 0 10 -262144 -1 -1
1 1;
#X obj -104 -87 print usign convolver;
#X msg -230 68 set ir0;
#X msg -203 13 read -resize \$1 ir0;
#X obj -230 127 partconv~ ir0 8192;
#X obj -10 41 soundfiler;
#X obj -37 -11 t b s;
#X msg -10 14 read -resize \$1 ir1;
#X msg -37 69 set ir1;
#X obj -37 128 partconv~ ir1 8192;
#X obj -231 -68 route 0 1;
#X obj -230 -37 symbol;
#X obj -37 -36 symbol;
#X obj -229 368 *~;
#X obj -215 263 line~;
#X obj -35 367 *~;
#X obj -214 318 -~ 1;
#X obj -228 414 outlet~;
#X obj -346 -144 s line-target \$1;
#X obj -216 199 r line-target;
#X obj -215 229 pack \$1 3000;
#X obj -35 408 outlet~;
#X obj -167 293 print;
#X msg -168 265 going to convolver\$1 in \$2 ms;
#X msg -105 -150 \$1;
#X obj -105 -121 print loading file;
#X obj 88 304 vu 15 120 empty empty -1 -8 0 10 -66577 -1 1 0;
#X obj 31 409 pvu~;
#X obj -323 297 vu 15 120 empty empty -1 -8 0 10 -66577 -1 1 0;
#X obj -273 413 pvu~;
#X obj -231 -94 pack b s;
#X obj -232 -142 bng 15 250 50 0 empty empty empty 17 7 0 10 -262144
-1 -1;
#X connect 1 0 6 0;
#X connect 1 1 7 0;
#X connect 2 0 28 0;
#X connect 2 0 34 1;
#X connect 2 0 35 0;
#X connect 3 0 8 0;
#X connect 3 0 13 0;
#X connect 4 0 22 0;
#X connect 4 0 5 0;
#X connect 4 0 34 0;
#X connect 6 0 8 0;
#X connect 7 0 0 0;
#X connect 8 0 17 0;
#X connect 10 0 12 0;
#X connect 10 1 11 0;
#X connect 11 0 9 0;
#X connect 12 0 13 0;
#X connect 13 0 19 0;
#X connect 14 0 15 0;
#X connect 14 1 16 0;
#X connect 15 0 1 0;
#X connect 16 0 10 0;
#X connect 17 0 21 0;
#X connect 17 0 33 0;
#X connect 18 0 20 1;
#X connect 18 0 19 1;
#X connect 18 0 20 0;
#X connect 19 0 25 0;
#X connect 19 0 31 0;
#X connect 20 0 17 1;
#X connect 23 0 24 0;
#X connect 24 0 18 0;
#X connect 24 0 27 0;
#X connect 27 0 26 0;
#X connect 28 0 29 0;
#X connect 31 0 30 0;
#X connect 33 0 32 0;
#X connect 34 0 14 0;
#X connect 35 0 4 0;
