#N canvas 413 23 1061 817 10;
#X declare -lib mrpeach;
#X declare -lib mrpeach;
#X declare -lib mrpeach;
#X declare -lib mrpeach;
#X declare -lib mrpeach;
#X obj -329 -345 loadbang;
#X obj -260 -222 openpanel;
#X obj -261 -265 bng 32 250 50 0 empty empty empty 0 -6 0 8 -4034 -1
-1;
#X msg -330 -266 \; pd dsp 1;
#X obj -109 92 dac~;
#X obj -110 28 bng 15 250 50 0 empty empty empty 17 7 0 10 -262144
-1 -1;
#X text -253 -325 * load IR from system;
#X obj 319 -167 bng 15 250 50 0 empty empty empty 17 7 0 10 -262144
-1 -1;
#X obj 103 -176 tgl 15 0 empty empty empty 17 7 0 10 -262144 -1 -1
1 1;
#X obj 103 -209 client;
#X obj 186 -271 bng 15 250 50 0 empty empty empty 17 7 0 10 -262144
-1 -1;
#X text 180 -293 * disconnect;
#X text 322 -330 * espaces;
#X text 97 -325 * load IR from server *;
#X obj 103 -244 loadbang;
#X obj 103 -272 bng 15 250 50 0 empty empty empty 17 7 0 10 -262144
-1 -1;
#X text 99 -295 * connect;
#X text -103 -394 TO DO : check effect of FFT size on conv object !
;
#X text -102 -379 TO DO : drywet ... ?;
#X obj 424 -194 float 340;
#X obj 425 -152 float 15;
#X obj 425 -129 float 0.0085;
#X obj 426 -107 float 40;
#X obj 425 -173 float 100;
#X obj 319 -137 s3;
#X obj 322 -284 bng 15 250 50 0 empty empty empty 17 7 0 10 -262144
-1 -1;
#X obj 424 -313 float 340;
#X obj 423 -273 float 15;
#X obj 423 -253 float 0.0085;
#X obj 423 -232 float 40;
#X text 518 -317 sound speed;
#X text 520 -298 j_max;
#X text 519 -276 duration;
#X text 519 -254 viscocity;
#X obj 423 -293 float 100;
#X obj 322 -248 h2e1;
#X text 517 -232 frequency;
#X obj 322 -40 bng 15 250 50 0 empty empty empty 17 7 0 10 -262144
-1 -1;
#X obj 424 -69 float 340;
#X obj 425 -26 float 15;
#X obj 425 -6 float 0.0085;
#X obj 425 15 float 40;
#X obj 424 -48 float 100;
#X obj 425 36 float 3;
#X obj 322 -13 s2e1;
#X text 531 39 frequency 2;
#X text 525 -195 sound speed;
#X text 527 -176 j_max;
#X text 526 -152 duration;
#X text 526 -128 viscocity;
#X text 524 -105 frequency;
#X text 529 -74 sound speed;
#X text 531 -55 j_max;
#X text 530 -33 duration;
#X text 530 -11 viscocity;
#X obj 320 107 bng 15 250 50 0 empty empty empty 17 7 0 10 -262144
-1 -1;
#X obj 422 78 float 340;
#X obj 423 121 float 15;
#X text 528 183 frequency 2;
#X text 527 73 sound speed;
#X text 529 92 j_max;
#X text 528 114 duration;
#X text 528 136 viscocity;
#X text 528 206 frequency 3;
#X obj 320 136 e3;
#X obj 422 99 float 10;
#X text -107 8 * listen to loaded IR;
#X obj 423 162 float 100;
#X obj 423 183 float 10;
#X obj 423 204 float 0.1;
#X obj 423 141 float 0.00085;
#X text -111 126 * show loaded IR;
#X text 526 158 frequency 1;
#X text 528 11 frequency 1;
#X obj -110 156 table ir0;
#X obj -6 155 table ir1;
#X obj -109 61 tabplay~ ir0;
#X obj -10 91 dac~;
#X obj -10 60 tabplay~ ir1;
#X obj -11 33 bng 15 250 50 0 empty empty empty 17 7 0 10 -262144 -1
-1;
#X obj -330 70 drywet~;
#X obj -285 10 hsl 128 10 0 127 0 0 empty empty empty -2 -8 0 10 -204786
-1 -1 0 1;
#X obj -330 -159 adc~ 1;
#X obj -311 -107 convolver;
#X obj -307 -65 dac~;
#X connect 0 0 2 0;
#X connect 0 0 3 0;
#X connect 1 0 83 1;
#X connect 2 0 1 0;
#X connect 3 0 82 0;
#X connect 5 0 76 0;
#X connect 7 0 19 0;
#X connect 7 0 20 0;
#X connect 7 0 21 0;
#X connect 7 0 22 0;
#X connect 7 0 23 0;
#X connect 7 0 24 0;
#X connect 9 0 8 0;
#X connect 9 1 83 1;
#X connect 10 0 9 2;
#X connect 14 0 9 0;
#X connect 15 0 14 0;
#X connect 19 0 24 1;
#X connect 20 0 24 3;
#X connect 21 0 24 4;
#X connect 22 0 24 5;
#X connect 23 0 24 2;
#X connect 24 0 9 1;
#X connect 25 0 26 0;
#X connect 25 0 27 0;
#X connect 25 0 28 0;
#X connect 25 0 29 0;
#X connect 25 0 34 0;
#X connect 25 0 35 0;
#X connect 26 0 35 1;
#X connect 27 0 35 3;
#X connect 28 0 35 4;
#X connect 29 0 35 5;
#X connect 34 0 35 2;
#X connect 35 0 9 1;
#X connect 37 0 38 0;
#X connect 37 0 39 0;
#X connect 37 0 40 0;
#X connect 37 0 41 0;
#X connect 37 0 42 0;
#X connect 37 0 43 0;
#X connect 37 0 44 0;
#X connect 38 0 44 1;
#X connect 39 0 44 3;
#X connect 40 0 44 4;
#X connect 41 0 44 5;
#X connect 42 0 44 2;
#X connect 43 0 44 6;
#X connect 44 0 9 1;
#X connect 55 0 56 0;
#X connect 55 0 57 0;
#X connect 55 0 64 0;
#X connect 55 0 65 0;
#X connect 55 0 67 0;
#X connect 55 0 68 0;
#X connect 55 0 69 0;
#X connect 55 0 70 0;
#X connect 56 0 64 1;
#X connect 57 0 64 3;
#X connect 64 0 9 1;
#X connect 65 0 64 2;
#X connect 67 0 64 5;
#X connect 68 0 64 6;
#X connect 69 0 64 7;
#X connect 70 0 64 4;
#X connect 76 0 4 0;
#X connect 78 0 77 1;
#X connect 79 0 78 0;
#X connect 81 0 80 2;
#X connect 82 0 83 0;
#X connect 83 0 84 0;
#X connect 83 1 84 1;
