#N canvas 146 492 196 379 10;
#X declare -lib mrpeach;
#X obj 20 51 import mrpeach;
#X obj 20 108 udpreceive 9001;
#X obj 20 166 unpackOSC;
#X obj 20 230 print;
#X text 17 10 Receive OSC message;
#X obj 20 199 routeOSC /;
#X connect 1 0 2 0;
#X connect 2 0 5 0;
#X connect 5 0 3 0;
